<?xml version="1.0" encoding="utf-8"?>
<!-- Generator: Adobe Illustrator 23.0.1, SVG Export Plug-In . SVG Version: 6.00 Build 0)  -->
<svg version="1.1" id="Layer_1" xmlns="http://www.w3.org/2000/svg" xmlns:xlink="http://www.w3.org/1999/xlink" x="0px" y="0px"
	 viewBox="0 0 139.7 135.8" style="enable-background:new 0 0 139.7 135.8;" xml:space="preserve">
<style type="text/css">
	.st0{fill:#FFFFFF;}
</style>
<g>
	<path class="st0" d="M66.9,70.5c0.1,5.6,4.1,8,8.9,5.2c6.6-3.7,13.1-7.6,19.5-11.4c4.2-2.5,4.1-7.3-0.1-9.8
		c-6.5-3.9-13-7.6-19.5-11.4c-4.6-2.6-8.7-0.3-8.8,5c-0.1,3.7,0,7.6,0,11.3l0,0C66.9,63.2,66.9,66.9,66.9,70.5z"/>
	<path class="st0" d="M118.5,45.6c0.3,1.1,0.7,2.3,0.9,3.5c6,28.3-18,53-46.5,47.9c-1-0.2-2-0.3-3.7-0.6c0,4.8,0.1,9.2,0,13.5
		c-0.2,5.5-3.8,10.3-8.9,12.3c2.9,0.5,5.8,0.7,8.8,0.7c30.1,0,54.4-24.4,54.4-54.4C123.6,60.2,121.8,52.5,118.5,45.6z"/>
	<path class="st0" d="M40.5,108.2c0-17.1-0.1-34.3,0.1-51.5C40.7,37.3,56.8,19.9,76,18c6.8-0.7,13.5,0.4,19.4,2.7
		C87.7,16.5,78.7,14,69.2,14c-30.1,0-54.5,24.4-54.5,54.5c0,20.3,11.2,38.1,27.8,47.5C41.2,113.6,40.5,111,40.5,108.2z"/>
</g>
</svg>
