<?xml version="1.0" encoding="utf-8"?>
<!-- Generator: Adobe Illustrator 23.0.1, SVG Export Plug-In . SVG Version: 6.00 Build 0)  -->
<svg version="1.1" id="Layer_1" xmlns="http://www.w3.org/2000/svg" xmlns:xlink="http://www.w3.org/1999/xlink" x="0px" y="0px"
	 viewBox="0 0 595.3 192.4" style="enable-background:new 0 0 595.3 192.4;" xml:space="preserve">
<style type="text/css">
	.st0{fill:#6C3F98;}
</style>
<g>
	<path class="st0" d="M86.6,101.1c0.1,8.3,6.2,11.9,13.3,7.8c9.8-5.6,19.5-11.3,29.2-17c6.3-3.8,6.2-10.9-0.1-14.6
		c-9.7-5.8-19.4-11.4-29.2-17c-6.9-3.9-13-0.5-13.2,7.5c-0.1,5.6,0,11.3,0,16.9c0,0,0,0,0,0C86.6,90.1,86.5,95.6,86.6,101.1z"/>
	<path class="st0" d="M163.7,63.8c0.5,1.7,1,3.4,1.4,5.2c8.9,42.3-26.9,79.2-69.5,71.6c-1.5-0.3-3-0.5-5.5-0.9
		c0,7.1,0.2,13.7,0,20.2c-0.3,8.2-5.7,15.4-13.3,18.4c4.3,0.7,8.7,1.1,13.2,1.1c44.9,0,81.3-36.4,81.3-81.3
		C171.3,85.7,168.6,74.2,163.7,63.8z"/>
	<path class="st0" d="M47.1,157.4c0-25.6-0.2-51.3,0.1-76.9c0.2-29.1,24.2-55.1,53-57.9c10.2-1,20.1,0.6,29,4.1
		c-11.6-6.4-25-10.1-39.2-10.1C45,16.6,8.6,53,8.6,98c0,30.4,16.7,57,41.5,70.9C48.1,165.4,47.1,161.6,47.1,157.4z"/>
</g>
<g>
	<g>
		<path class="st0" d="M248.9,123.5v-17.7c4.1,0,6.1-1.6,6.1-4.7c0-2.8-1.6-4.3-4.7-4.3c-3.1,0-4.7,1.9-4.7,5.8v44.2h-20.1v-42.1
			c0-4.4,0.4-7.9,1.3-10.7c0.9-2.8,2.4-5.4,4.5-7.8c2.4-2.7,5.4-4.8,8.9-6.3c3.6-1.6,7.3-2.3,11.1-2.3c6.9,0,12.6,2.3,17.3,6.9
			c4.7,4.6,7,10.4,7,17.2c0,6.6-2.1,12-6.3,16.2c-3.8,3.8-9.6,5.7-17.3,5.7L248.9,123.5z"/>
		<path class="st0" d="M302.9,97.5v49.4h-18.5V97.5H302.9z M293.7,75.4c2.5,0,4.7,0.9,6.5,2.7c1.8,1.8,2.8,3.9,2.8,6.3
			c0,2.6-0.9,4.7-2.6,6.3c-1.7,1.7-4,2.5-6.7,2.5s-4.9-0.8-6.7-2.5c-1.7-1.7-2.6-3.8-2.6-6.3c0-2.4,0.9-4.5,2.8-6.3
			C289,76.3,291.2,75.4,293.7,75.4z"/>
		<path class="st0" d="M340.5,97.5h18.5v10.9c0,3.1-0.5,5.6-1.4,7.5c-0.9,1.9-2.5,3.6-4.7,5c2.2,1.5,3.8,3.2,4.7,5
			c0.9,1.8,1.3,4.2,1.3,7.1v13.9h-18.5V132c0-3.4-1.2-5.1-3.6-5.1c-2.3,0-3.5,1.5-3.5,4.4v15.6H315v-13.2c0-3,0.6-5.5,1.7-7.4
			c1.1-1.9,3-3.7,5.8-5.4c-2.7-1.8-4.7-3.7-5.8-5.7c-1.1-2-1.7-4.5-1.7-7.6V97.5h18.5V110c0,1.3,0.3,2.3,1,3.2
			c0.7,0.8,1.5,1.2,2.5,1.2c2.3,0,3.5-1.5,3.5-4.4V97.5z"/>
		<path class="st0" d="M398.5,128.4v19.2c-1.5,0.3-2.9,0.4-4.2,0.4c-7.4,0-13.6-2.4-18.6-7.3s-7.4-11-7.4-18.4
			c0-7.2,2.5-13.2,7.5-18.2c5-5,11.1-7.5,18.3-7.5c8,0,14.3,2.3,18.9,7c4.6,4.7,6.9,11.1,6.9,19.2v24.2h-18.5V124
			c0-2.6-0.6-4.7-1.9-6.2c-1.3-1.6-3-2.3-5.1-2.3c-1.9,0-3.6,0.7-5.1,2.1s-2.1,3.1-2.1,5.1c0,2,0.6,3.7,1.9,5.1c1.3,1.3,2.9,2,4.9,2
			C395.6,129.7,397.1,129.2,398.5,128.4z"/>
		<path class="st0" d="M451.1,79.3v67.7h-18.5V79.3H451.1z"/>
		<path class="st0" d="M482.3,97.5v49.4h-18.5V97.5H482.3z M473.1,75.4c2.5,0,4.7,0.9,6.5,2.7c1.8,1.8,2.8,3.9,2.8,6.3
			c0,2.6-0.9,4.7-2.6,6.3c-1.7,1.7-4,2.5-6.7,2.5s-4.9-0.8-6.7-2.5c-1.7-1.7-2.6-3.8-2.6-6.3c0-2.4,0.9-4.5,2.8-6.3
			C468.4,76.3,470.5,75.4,473.1,75.4z"/>
		<path class="st0" d="M532.1,97.5L509,148.8l-22.8-51.3h17.7l5.3,13.3l5.7-13.3H532.1z"/>
		<path class="st0" d="M584.5,125.2h-28.1c-0.4-1.4-0.6-2.7-0.6-3.9c0-1.7,0.3-3.3,0.9-4.9h9.4c-0.7-3.7-2.7-5.5-6.2-5.5
			c-2.3,0-4.2,1-5.7,2.9c-1.5,2-2.2,4.5-2.2,7.6c0,3.2,0.7,5.8,2.1,7.8c1.4,2,3.2,3,5.5,3c1.9,0,3.6-0.9,5.4-2.8l10.6,12.7
			c-4.9,3.9-10.4,5.8-16.4,5.8c-7.3,0-13.5-2.5-18.5-7.4c-5-4.9-7.5-11-7.5-18.3c0-7.2,2.5-13.3,7.6-18.3c5-5,11.2-7.5,18.6-7.5
			c7.2,0,13.2,2.4,18.1,7.3c4.9,4.9,7.3,10.9,7.3,18C584.7,122.5,584.6,123.6,584.5,125.2z"/>
	</g>
</g>
</svg>
