<?xml version="1.0" encoding="utf-8"?>
<!-- Generator: Adobe Illustrator 23.0.1, SVG Export Plug-In . SVG Version: 6.00 Build 0)  -->
<svg version="1.1" id="Layer_1" xmlns="http://www.w3.org/2000/svg" xmlns:xlink="http://www.w3.org/1999/xlink" x="0px" y="0px"
	 viewBox="0 0 135.3 135.8" style="enable-background:new 0 0 135.3 135.8;" xml:space="preserve">
<style type="text/css">
	.st0{fill:#FFFFFF;}
</style>
<g>
	<path class="st0" d="M64.9,67.5c0.1,5.6,4.1,8,8.9,5.2c6.6-3.7,13.1-7.6,19.5-11.4c4.2-2.5,4.1-7.3-0.1-9.8
		c-6.5-3.9-13-7.6-19.5-11.4c-4.6-2.6-8.7-0.3-8.8,5c-0.1,3.7,0,7.6,0,11.3l0,0C64.9,60.1,64.8,63.8,64.9,67.5z"/>
	<path class="st0" d="M116.5,42.5c0.3,1.1,0.7,2.3,0.9,3.5c6,28.3-18,53-46.5,47.9c-1-0.2-2-0.3-3.7-0.6c0,4.8,0.1,9.2,0,13.5
		c-0.2,5.5-3.8,10.3-8.9,12.3c2.9,0.5,5.8,0.7,8.8,0.7c30.1,0,54.4-24.4,54.4-54.4C121.6,57.2,119.8,49.5,116.5,42.5z"/>
	<path class="st0" d="M38.5,105.2c0-17.1-0.1-34.3,0.1-51.5C38.7,34.2,54.7,16.8,74,15c6.8-0.7,13.5,0.4,19.4,2.7
		C85.7,13.4,76.7,11,67.2,11c-30.1,0-54.5,24.4-54.5,54.5c0,20.3,11.2,38.1,27.8,47.5C39.1,110.5,38.5,108,38.5,105.2z"/>
</g>
</svg>
