<?xml version="1.0" encoding="utf-8"?>
<!-- Generator: Adobe Illustrator 23.0.1, SVG Export Plug-In . SVG Version: 6.00 Build 0)  -->
<svg version="1.1" id="Layer_1" xmlns="http://www.w3.org/2000/svg" xmlns:xlink="http://www.w3.org/1999/xlink" x="0px" y="0px"
	 viewBox="0 0 451.3 135.8" style="enable-background:new 0 0 451.3 135.8;" xml:space="preserve">
<style type="text/css">
	.st0{fill:#FFFFFF;}
</style>
<g>
	<g>
		<path class="st0" d="M44.9,86.1V65.2c4.8,0,7.2-1.9,7.2-5.6c0-3.3-1.9-5.1-5.6-5.1c-3.7,0-5.6,2.2-5.6,6.9v52.3H17.1V63.9
			c0-5.2,0.5-9.3,1.5-12.7c1.1-3.3,2.8-6.4,5.3-9.2c2.8-3.2,6.4-5.7,10.5-7.4c4.3-1.9,8.6-2.7,13.1-2.7c8.2,0,14.9,2.7,20.5,8.2
			s8.3,12.3,8.3,20.3c0,7.8-2.5,14.2-7.4,19.2c-4.5,4.5-11.4,6.7-20.5,6.7L44.9,86.1z"/>
		<path class="st0" d="M108.7,55.4v58.4H86.8V55.4H108.7z M97.8,29.3c3,0,5.6,1.1,7.7,3.2c2.1,2.1,3.3,4.6,3.3,7.4
			c0,3.1-1.1,5.6-3.1,7.4c-2,2-4.7,3-7.9,3s-5.8-0.9-7.9-3c-2-2-3.1-4.5-3.1-7.4c0-2.8,1.1-5.3,3.3-7.4
			C92.3,30.3,94.9,29.3,97.8,29.3z"/>
		<path class="st0" d="M153.2,55.4H175v12.9c0,3.7-0.6,6.6-1.7,8.9c-1.1,2.2-3,4.3-5.6,5.9c2.6,1.8,4.5,3.8,5.6,5.9s1.5,5,1.5,8.4
			v16.4h-21.9V96.2c0-4-1.4-6-4.3-6c-2.7,0-4.1,1.8-4.1,5.2v18.4H123V98.2c0-3.5,0.7-6.5,2-8.7s3.5-4.4,6.9-6.4
			c-3.2-2.1-5.6-4.4-6.9-6.7c-1.3-2.4-2-5.3-2-9v-12h21.9v14.8c0,1.5,0.4,2.7,1.2,3.8c0.8,0.9,1.8,1.4,3,1.4c2.7,0,4.1-1.8,4.1-5.2
			V55.4z"/>
		<path class="st0" d="M221.7,91.9v22.7c-1.8,0.4-3.4,0.5-5,0.5c-8.7,0-16.1-2.8-22-8.6c-5.9-5.8-8.7-13-8.7-21.8
			c0-8.5,3-15.6,8.9-21.5s13.1-8.9,21.6-8.9c9.5,0,16.9,2.7,22.3,8.3s8.2,13.1,8.2,22.7v28.6h-21.9V86.7c0-3.1-0.7-5.6-2.2-7.3
			c-1.5-1.9-3.5-2.7-6-2.7c-2.2,0-4.3,0.8-6,2.5c-1.8,1.7-2.5,3.7-2.5,6c0,2.4,0.7,4.4,2.2,6c1.5,1.5,3.4,2.4,5.8,2.4
			C218.3,93.5,220.1,92.9,221.7,91.9z"/>
		<path class="st0" d="M283.9,33.9v80H262v-80H283.9z"/>
		<path class="st0" d="M320.8,55.4v58.4H299V55.4H320.8z M309.9,29.3c3,0,5.6,1.1,7.7,3.2s3.3,4.6,3.3,7.4c0,3.1-1.1,5.6-3.1,7.4
			c-2,2-4.7,3-7.9,3c-3.2,0-5.8-0.9-7.9-3c-2-2-3.1-4.5-3.1-7.4c0-2.8,1.1-5.3,3.3-7.4C304.4,30.3,306.9,29.3,309.9,29.3z"/>
		<path class="st0" d="M379.7,55.4L352.4,116l-27-60.7h20.9l6.3,15.7l6.7-15.7h20.4V55.4z"/>
		<path class="st0" d="M441.7,88.1h-33.2c-0.5-1.7-0.7-3.2-0.7-4.6c0-2,0.4-3.9,1.1-5.8H420c-0.8-4.4-3.2-6.5-7.3-6.5
			c-2.7,0-5,1.2-6.7,3.4c-1.8,2.4-2.6,5.3-2.6,9c0,3.8,0.8,6.9,2.5,9.2c1.7,2.4,3.8,3.5,6.5,3.5c2.2,0,4.3-1.1,6.4-3.3l12.5,15
			c-5.8,4.6-12.3,6.9-19.4,6.9c-8.6,0-16-3-21.9-8.7c-5.9-5.8-8.9-13-8.9-21.6c0-8.5,3-15.7,9-21.6c5.9-5.9,13.2-8.9,22-8.9
			c8.5,0,15.6,2.8,21.4,8.6c5.8,5.8,8.6,12.9,8.6,21.3C441.9,84.9,441.8,86.2,441.7,88.1z"/>
	</g>
</g>
</svg>
