<?xml version="1.0" encoding="utf-8"?>
<!-- Generator: Adobe Illustrator 23.0.1, SVG Export Plug-In . SVG Version: 6.00 Build 0)  -->
<svg version="1.1" id="Layer_1" xmlns="http://www.w3.org/2000/svg" xmlns:xlink="http://www.w3.org/1999/xlink" x="0px" y="0px"
	 viewBox="0 0 54 54" style="enable-background:new 0 0 54 54;" xml:space="preserve">
<style type="text/css">
	.st0{fill:#8593AC;}
	.st1{fill-rule:evenodd;clip-rule:evenodd;fill:#FFFFFF;}
</style>
<circle class="st0" cx="27" cy="27" r="27"/>
<path class="st1" d="M27.9,17.6c-1.2,3.4,0.6,7.2,4,8.4c1.1,0.4,2.4,0.5,3.6,0.2c0,0.1,0,0.3,0,0.4c0,3.3,0,6.6,0,10
	c0,0.3,0,0.6-0.1,1c-0.3,1-1.2,1.8-2.3,1.7c-5.5,0-11.1,0-16.6,0c-1.5,0-2.7-1.1-2.7-2.6c0,0,0-0.1,0-0.1c0-5.5,0-11,0-16.5
	c-0.1-1.3,1-2.5,2.3-2.5c0.1,0,0.2,0,0.3,0c1.9,0,3.8,0,5.7,0C23.9,17.6,25.9,17.6,27.9,17.6z M16.4,35.7l0.1,0.2c0.5,0,1.1,0,1.6,0
	c4.7,0,9.4,0,14,0c0.9,0,1-0.2,0.6-1c-1.5-2.7-3-5.3-4.5-8c-0.4-0.6-0.6-0.6-1,0c-0.6,1-1.3,2-1.9,3c-0.3,0.4-0.6,0.8-0.9,1.2
	c-0.3,0.4-0.9,0.5-1.3,0.1c0,0,0,0,0,0c-0.2-0.1-0.4-0.3-0.5-0.4c-1-1-1.8-0.9-2.7,0.2c-0.9,1.2-1.8,2.5-2.7,3.7
	C16.9,35.1,16.6,35.4,16.4,35.7z M20.2,20.8c-1.6,0-2.9,1.3-2.9,2.9c0,1.6,1.3,2.9,2.9,2.9c1.6,0,2.9-1.2,2.9-2.8
	C23.1,22.1,21.8,20.8,20.2,20.8L20.2,20.8z M39.3,19.9c0,2.9-2.3,5.2-5.2,5.2c0,0-0.1,0-0.1,0c-2.9,0-5.2-2.4-5.2-5.3
	c0-2.9,2.4-5.2,5.3-5.2C36.9,14.6,39.3,17,39.3,19.9C39.3,19.9,39.3,19.9,39.3,19.9L39.3,19.9z M34.8,18.8l0.2-0.1
	c0.4,0.4,0.7,0.7,1.1,1.1c0.4,0.4,0.6,0,0.8-0.2s0.4-0.4,0.1-0.7c-0.8-0.8-1.7-1.6-2.5-2.5c-0.1-0.2-0.4-0.3-0.6-0.2
	c-0.1,0-0.1,0.1-0.2,0.1c-0.8,0.8-1.6,1.6-2.4,2.4c-0.5,0.5-0.1,0.7,0.1,1c0.3,0.4,0.5,0,0.7-0.1c0.4-0.4,0.8-0.8,1.3-1.3
	c0,1.6,0,3.1,0,4.5c-0.1,0.3,0.1,0.6,0.4,0.7c0.1,0,0.2,0,0.3,0c0.3,0.1,0.6-0.1,0.7-0.4c0-0.1,0-0.2,0-0.3
	C34.7,21.5,34.8,20.1,34.8,18.8z"/>
</svg>
